<?xml version="1.0" standalone="no"?>
<!DOCTYPE svg PUBLIC "-//W3C//DTD SVG 20010904//EN"
 "http://www.w3.org/TR/2001/REC-SVG-20010904/DTD/svg10.dtd">
<svg version="1.0" xmlns="http://www.w3.org/2000/svg"
 width="409.000000pt" height="447.000000pt" viewBox="0 0 409.000000 447.000000"
 preserveAspectRatio="xMidYMid meet">

<g transform="translate(0.000000,447.000000) scale(0.100000,-0.100000)"
fill="#000000" stroke="none">
<path d="M2094 3523 c4 -395 10 -727 13 -737 5 -19 17 -19 379 -12 369 7 374
7 374 -13 0 -11 -4 -23 -10 -26 -5 -3 -10 -15 -10 -26 0 -10 -5 -29 -12 -42
-24 -47 -28 -57 -28 -72 0 -9 -11 -36 -25 -61 -14 -25 -25 -51 -25 -58 0 -20
-71 -156 -82 -156 -4 0 -8 -7 -8 -16 0 -9 -11 -27 -25 -40 -14 -13 -25 -30
-25 -38 0 -8 -3 -16 -7 -18 -5 -1 -33 -32 -63 -68 -71 -83 -87 -99 -135 -135
-22 -17 -42 -33 -45 -37 -3 -3 -18 -10 -33 -13 l-27 -7 0 195 c0 168 -2 196
-16 201 -23 9 -147 7 -162 -3 -10 -6 -15 -91 -19 -389 -6 -366 -5 -382 12
-382 42 0 220 77 259 113 11 9 23 17 27 17 4 0 14 6 21 13 7 7 33 27 58 44 93
64 285 269 344 367 10 17 22 33 27 34 5 2 9 8 9 14 0 5 10 24 23 41 30 42 47
76 47 93 0 8 4 14 10 14 5 0 12 11 16 25 3 14 10 25 15 25 5 0 9 9 9 19 0 11
5 23 10 26 6 3 10 17 10 30 0 13 5 27 10 30 6 3 10 16 10 29 0 12 7 31 15 42
8 10 15 31 15 47 0 15 5 27 10 27 6 0 10 18 10 39 0 22 5 43 10 46 6 3 10 21
10 39 0 18 7 41 15 52 8 10 15 36 15 56 0 20 5 40 10 43 14 9 13 68 -2 83 -9
9 -114 12 -409 12 -353 0 -398 2 -403 16 -10 25 -7 872 3 878 5 3 35 -8 67
-24 33 -16 65 -30 72 -30 6 0 12 -4 12 -10 0 -5 6 -10 13 -10 18 0 75 -28 82
-41 4 -5 13 -9 21 -9 9 0 68 -25 132 -56 64 -30 143 -67 174 -82 l58 -27 0
-162 c0 -191 -5 -184 126 -191 l81 -4 7 198 c3 110 9 222 12 250 l6 50 -73 36
c-189 92 -266 128 -277 128 -7 0 -12 5 -12 10 0 6 -7 10 -15 10 -8 0 -23 4
-33 10 -47 26 -231 110 -241 110 -6 0 -11 5 -11 10 0 6 -7 10 -15 10 -8 0 -23
4 -33 10 -16 8 -139 66 -272 127 -30 14 -63 29 -72 34 -10 5 -23 9 -29 9 -9 0
-10 -179 -5 -717z"/>
<path d="M1885 4176 c-49 -24 -106 -51 -125 -60 -19 -9 -42 -21 -50 -25 -14
-9 -52 -27 -345 -166 -66 -31 -147 -70 -180 -86 -33 -16 -63 -29 -68 -29 -4 0
-25 -11 -47 -25 -22 -14 -46 -25 -55 -25 -8 0 -15 -4 -15 -10 0 -5 -8 -10 -19
-10 -33 0 -44 -26 -36 -83 7 -49 15 -188 35 -577 5 -91 12 -190 17 -220 l8
-55 400 -5 400 -5 3 -432 c2 -344 0 -433 -10 -433 -7 0 -40 24 -74 53 -33 28
-75 63 -94 77 -35 26 -140 152 -140 168 0 5 -6 15 -14 21 -16 14 -126 232
-126 253 -1 7 -12 26 -25 43 -22 26 -27 28 -45 17 -11 -6 -29 -12 -39 -12 -11
0 -23 -4 -26 -10 -3 -5 -17 -10 -31 -10 -28 0 -84 -37 -84 -56 0 -7 16 -42 35
-78 19 -37 35 -73 35 -81 0 -8 5 -15 10 -15 6 0 10 -8 10 -17 0 -9 6 -24 14
-32 7 -9 24 -36 37 -61 13 -25 32 -54 42 -64 9 -11 17 -25 17 -31 0 -21 276
-295 297 -295 5 0 20 -11 35 -25 15 -14 30 -25 34 -25 4 0 22 -11 40 -25 18
-14 37 -25 42 -25 5 0 17 -9 27 -20 10 -11 26 -20 36 -20 9 0 19 -3 21 -8 4
-10 107 -62 124 -62 8 0 23 -6 34 -12 17 -11 22 -10 30 2 6 9 10 283 10 701 0
576 -2 688 -14 705 -14 18 -32 19 -409 22 -362 2 -396 4 -402 20 -5 9 -12 112
-16 227 -5 116 -11 234 -15 262 -6 55 7 83 40 83 8 0 17 4 21 9 7 13 64 41 82
41 7 0 13 5 13 10 0 6 5 10 11 10 9 0 242 109 342 160 22 11 45 20 52 20 7 0
18 7 25 15 7 9 23 15 34 13 18 -3 22 -12 27 -73 4 -38 7 -105 8 -147 l1 -78
89 0 c50 0 92 4 95 8 3 4 6 147 7 318 l2 309 -24 2 c-13 1 -64 -17 -114 -41z"/>
<path d="M633 1331 c-54 -25 -63 -44 -63 -136 0 -92 9 -111 90 -190 74 -72 90
-100 90 -157 0 -52 -11 -71 -36 -66 -16 3 -19 14 -22 86 l-3 82 -59 0 -60 0 0
-94 c0 -79 3 -97 21 -119 26 -34 88 -51 162 -44 69 6 104 27 123 72 16 40 19
142 4 181 -6 15 -47 65 -90 110 -82 86 -94 108 -88 165 2 26 8 34 23 34 18 0
20 -8 23 -62 l3 -63 66 0 66 0 -6 73 c-3 39 -8 80 -12 89 -21 52 -155 75 -232
39z"/>
<path d="M2433 1339 c-17 -5 -43 -23 -57 -40 -23 -27 -26 -39 -26 -102 1 -40
6 -82 13 -94 7 -12 45 -56 84 -97 79 -83 86 -98 81 -172 -3 -41 -6 -49 -23
-49 -18 0 -20 8 -23 83 l-3 82 -64 0 -65 0 0 -85 c0 -56 5 -96 15 -115 42 -82
256 -77 294 7 6 13 11 61 11 106 0 96 -2 101 -102 203 -53 55 -72 81 -79 114
-12 52 -4 80 22 80 17 0 19 -7 19 -65 l0 -65 65 0 65 0 0 73 c0 83 -14 111
-66 133 -37 16 -112 17 -161 3z"/>
<path d="M3100 1327 c-18 -9 -28 -25 -34 -55 -7 -30 -15 -42 -28 -42 -14 0
-18 -8 -18 -40 0 -33 3 -40 20 -40 19 0 20 -7 20 -225 l0 -225 65 0 65 0 0
225 0 225 35 0 c34 0 35 1 35 40 0 39 -1 40 -36 40 -45 0 -42 24 4 28 30 3 32
6 32 43 l0 39 -67 0 c-38 0 -79 -6 -93 -13z"/>
<path d="M2120 1280 c0 -47 -2 -50 -25 -50 -22 0 -25 -4 -25 -40 0 -36 3 -40
25 -40 l25 0 1 -157 c1 -171 9 -257 27 -275 6 -6 47 -13 92 -16 l80 -5 0 47
c0 41 -2 46 -23 46 -44 0 -47 14 -47 192 l0 168 35 0 c34 0 35 1 35 40 0 39
-1 40 -35 40 l-35 0 0 50 0 50 -65 0 -65 0 0 -50z"/>
<path d="M3330 1280 c0 -47 -2 -50 -25 -50 -22 0 -25 -4 -25 -40 0 -36 3 -40
24 -40 l25 0 3 -205 c4 -246 0 -238 118 -243 l80 -4 0 46 c0 41 -2 46 -23 46
-44 0 -47 14 -47 192 l0 168 35 0 c34 0 35 1 35 40 0 39 -1 40 -35 40 l-35 0
0 50 0 50 -65 0 -65 0 0 -50z"/>
<path d="M920 965 l0 -265 65 0 65 0 0 226 c0 209 1 225 18 222 15 -3 17 -23
20 -226 l2 -222 65 0 65 0 0 225 c0 218 1 225 20 225 19 0 20 -7 20 -225 l0
-225 65 0 65 0 0 234 c0 129 -3 242 -6 251 -8 21 -56 45 -89 45 -15 0 -42 -7
-61 -16 -30 -14 -35 -14 -56 0 -26 18 -80 21 -109 6 -13 -7 -19 -7 -19 0 0 6
-27 10 -65 10 l-65 0 0 -265z"/>
<path d="M1490 1217 c-46 -16 -70 -63 -70 -139 l0 -58 64 0 63 0 -4 48 c-3 31
0 53 10 66 22 30 37 10 37 -49 l0 -53 -64 -36 c-95 -53 -106 -71 -106 -171 0
-113 14 -131 102 -128 34 0 93 1 131 1 l67 1 0 223 c0 158 -4 230 -13 248 -26
53 -132 76 -217 47z m98 -364 c-3 -65 -6 -78 -20 -81 -16 -3 -18 5 -18 71 0
72 4 83 33 86 4 1 7 -34 5 -76z"/>
<path d="M1750 965 l0 -265 65 0 65 0 0 226 c0 209 1 225 18 222 14 -3 18 -16
20 -71 l3 -67 64 0 65 0 0 79 c0 44 -3 87 -6 96 -14 37 -101 58 -145 35 -13
-7 -19 -7 -19 0 0 6 -27 10 -65 10 l-65 0 0 -265z"/>
<path d="M2764 1216 c-61 -27 -64 -40 -64 -256 0 -217 3 -230 66 -256 40 -17
116 -17 164 -1 61 21 70 54 70 255 0 205 -7 231 -69 255 -50 20 -124 21 -167
3z m104 -254 c2 -161 1 -183 -14 -189 -9 -3 -20 0 -25 8 -10 16 -12 329 -3
354 4 9 14 15 23 13 14 -3 16 -27 19 -186z"/>
<path d="M655 449 c-27 -72 -51 -135 -53 -140 -2 -5 30 -9 72 -9 l75 0 12 40
c11 36 15 40 45 40 30 0 34 -4 45 -40 l12 -40 74 0 c40 0 73 4 73 9 0 8 -59
161 -93 244 -12 27 -12 27 -112 27 l-100 0 -50 -131z m165 1 c0 -11 0 -23 1
-27 0 -4 -4 -9 -10 -11 -14 -5 -25 23 -17 43 8 22 26 18 26 -5z"/>
<path d="M1083 565 l-33 -14 0 -115 c0 -144 -4 -141 165 -141 148 0 165 7 165
70 l0 45 -70 0 -70 0 0 -46 c0 -38 -3 -45 -17 -42 -16 3 -18 18 -21 116 -3
107 -2 112 18 112 16 0 20 -6 20 -35 l0 -35 71 0 70 0 -3 37 c-2 28 -9 41 -28
50 -35 18 -225 16 -267 -2z"/>
<path d="M1478 458 c-26 -68 -50 -131 -54 -140 -5 -16 2 -18 70 -18 l75 0 11
40 c10 37 14 40 45 40 31 0 35 -3 45 -40 l11 -40 75 0 c68 0 75 2 70 18 -3 9
-27 72 -53 140 l-47 122 -101 0 -100 0 -47 -122z m164 -12 c3 -15 0 -27 -8
-30 -19 -7 -27 10 -20 40 8 29 22 24 28 -10z"/>
<path d="M1860 440 l0 -140 143 0 c115 0 149 3 177 18 l35 17 0 105 0 105 -35
17 c-28 15 -62 18 -177 18 l-143 0 0 -140z m195 0 c0 -92 -2 -105 -17 -108
-16 -3 -18 7 -18 108 0 101 2 111 18 108 15 -3 17 -16 17 -108z"/>
<path d="M2260 440 l0 -140 150 0 c127 0 150 2 150 15 0 12 -15 15 -75 15
l-75 0 0 55 0 55 65 0 c51 0 65 3 65 15 0 12 -14 15 -65 15 l-65 0 0 40 0 40
70 0 c56 0 70 3 70 15 0 13 -23 15 -145 15 l-145 0 0 -140z"/>
<path d="M2582 443 l3 -138 58 -3 57 -3 0 65 c0 72 11 89 31 48 8 -15 25 -46
38 -69 24 -43 25 -43 80 -43 l56 0 35 73 35 72 3 -72 3 -73 69 0 70 0 0 140 0
140 -104 0 -104 0 -27 -65 c-16 -36 -31 -65 -35 -65 -4 0 -20 29 -36 65 l-29
64 -103 1 -103 0 3 -137z"/>
<path d="M3158 568 c5 -7 33 -44 61 -81 48 -64 51 -72 51 -128 l0 -59 80 0 80
0 0 58 c0 62 -5 54 124 200 l19 22 -69 0 -69 -1 -34 -44 c-18 -25 -37 -45 -41
-45 -5 0 -21 20 -37 45 l-28 45 -74 0 c-57 0 -71 -3 -63 -12z"/>
</g>
</svg>
